<mxfile host="app.diagrams.net" agent="Mozilla/5.0 (Windows NT 10.0; Win64; x64) AppleWebKit/537.36 (KHTML, like Gecko) Chrome/135.0.0.0 Safari/537.36" version="26.0.15" pages="2">
  <diagram id="C5RBs43oDa-KdzZeNtuy" name="Users">
    <mxGraphModel dx="1805" dy="852" grid="1" gridSize="10" guides="1" tooltips="1" connect="1" arrows="1" fold="1" page="1" pageScale="1" pageWidth="827" pageHeight="1169" math="0" shadow="0">
      <root>
        <mxCell id="WIyWlLk6GJQsqaUBKTNV-0" />
        <mxCell id="WIyWlLk6GJQsqaUBKTNV-1" parent="WIyWlLk6GJQsqaUBKTNV-0" />
        <mxCell id="IJASuBAqT-sii7Gef456-34" value="Database" style="swimlane;" vertex="1" parent="WIyWlLk6GJQsqaUBKTNV-1">
          <mxGeometry x="640" y="20" width="200" height="1000" as="geometry" />
        </mxCell>
        <mxCell id="IJASuBAqT-sii7Gef456-50" value="Persisting User Data&amp;nbsp;" style="rounded=1;whiteSpace=wrap;html=1;absoluteArcSize=1;arcSize=14;strokeWidth=2;" vertex="1" parent="IJASuBAqT-sii7Gef456-34">
          <mxGeometry x="50" y="115" width="100" height="50" as="geometry" />
        </mxCell>
        <mxCell id="ypqF2_i0VFzySZQqtAtH-0" value="User Profile" style="rounded=1;whiteSpace=wrap;html=1;absoluteArcSize=1;arcSize=14;strokeWidth=2;" vertex="1" parent="IJASuBAqT-sii7Gef456-34">
          <mxGeometry x="50" y="577.5" width="100" height="50" as="geometry" />
        </mxCell>
        <mxCell id="IJASuBAqT-sii7Gef456-7" value="User" style="swimlane;whiteSpace=wrap;html=1;" vertex="1" parent="WIyWlLk6GJQsqaUBKTNV-1">
          <mxGeometry x="20" y="20" width="260" height="1000" as="geometry" />
        </mxCell>
        <mxCell id="IJASuBAqT-sii7Gef456-5" value="Welcome Page" style="strokeWidth=2;html=1;shape=mxgraph.flowchart.start_2;whiteSpace=wrap;" vertex="1" parent="IJASuBAqT-sii7Gef456-7">
          <mxGeometry x="30" y="40" width="60" height="60" as="geometry" />
        </mxCell>
        <mxCell id="IJASuBAqT-sii7Gef456-19" style="edgeStyle=orthogonalEdgeStyle;rounded=0;orthogonalLoop=1;jettySize=auto;html=1;exitX=1;exitY=0.5;exitDx=0;exitDy=0;exitPerimeter=0;entryX=0;entryY=0.5;entryDx=0;entryDy=0;" edge="1" parent="IJASuBAqT-sii7Gef456-7" source="IJASuBAqT-sii7Gef456-3" target="IJASuBAqT-sii7Gef456-6">
          <mxGeometry relative="1" as="geometry" />
        </mxCell>
        <mxCell id="IJASuBAqT-sii7Gef456-71" style="edgeStyle=orthogonalEdgeStyle;rounded=0;orthogonalLoop=1;jettySize=auto;html=1;exitX=0.5;exitY=1;exitDx=0;exitDy=0;exitPerimeter=0;entryX=0;entryY=0.5;entryDx=0;entryDy=0;" edge="1" parent="IJASuBAqT-sii7Gef456-7" source="IJASuBAqT-sii7Gef456-3" target="IJASuBAqT-sii7Gef456-16">
          <mxGeometry relative="1" as="geometry">
            <Array as="points">
              <mxPoint x="60" y="435" />
            </Array>
          </mxGeometry>
        </mxCell>
        <mxCell id="IJASuBAqT-sii7Gef456-3" value="Start" style="strokeWidth=2;html=1;shape=mxgraph.flowchart.terminator;whiteSpace=wrap;" vertex="1" parent="IJASuBAqT-sii7Gef456-7">
          <mxGeometry x="20" y="120" width="80" height="40" as="geometry" />
        </mxCell>
        <mxCell id="IJASuBAqT-sii7Gef456-6" value="Input&lt;div&gt;Register&lt;/div&gt;" style="shape=parallelogram;html=1;strokeWidth=2;perimeter=parallelogramPerimeter;whiteSpace=wrap;rounded=1;arcSize=12;size=0.23;" vertex="1" parent="IJASuBAqT-sii7Gef456-7">
          <mxGeometry x="130" y="120" width="100" height="40" as="geometry" />
        </mxCell>
        <mxCell id="IJASuBAqT-sii7Gef456-17" style="edgeStyle=orthogonalEdgeStyle;rounded=0;orthogonalLoop=1;jettySize=auto;html=1;exitX=0.5;exitY=1;exitDx=0;exitDy=0;exitPerimeter=0;entryX=0.5;entryY=0;entryDx=0;entryDy=0;entryPerimeter=0;" edge="1" parent="IJASuBAqT-sii7Gef456-7" source="IJASuBAqT-sii7Gef456-5" target="IJASuBAqT-sii7Gef456-3">
          <mxGeometry relative="1" as="geometry" />
        </mxCell>
        <mxCell id="IJASuBAqT-sii7Gef456-16" value="Input Login" style="shape=parallelogram;html=1;strokeWidth=2;perimeter=parallelogramPerimeter;whiteSpace=wrap;rounded=1;arcSize=12;size=0.23;" vertex="1" parent="IJASuBAqT-sii7Gef456-7">
          <mxGeometry x="130" y="415" width="100" height="40" as="geometry" />
        </mxCell>
        <mxCell id="IJASuBAqT-sii7Gef456-8" value="Auth" style="swimlane;whiteSpace=wrap;html=1;" vertex="1" parent="WIyWlLk6GJQsqaUBKTNV-1">
          <mxGeometry x="280" y="20" width="360" height="1000" as="geometry" />
        </mxCell>
        <mxCell id="IJASuBAqT-sii7Gef456-46" value="Check Format Data" style="rounded=1;whiteSpace=wrap;html=1;absoluteArcSize=1;arcSize=14;strokeWidth=2;" vertex="1" parent="IJASuBAqT-sii7Gef456-8">
          <mxGeometry x="50" y="115" width="100" height="50" as="geometry" />
        </mxCell>
        <mxCell id="IJASuBAqT-sii7Gef456-48" value="Data Valid?" style="strokeWidth=2;html=1;shape=mxgraph.flowchart.decision;whiteSpace=wrap;" vertex="1" parent="IJASuBAqT-sii7Gef456-8">
          <mxGeometry x="221.5" y="102.5" width="77" height="75" as="geometry" />
        </mxCell>
        <mxCell id="IJASuBAqT-sii7Gef456-49" style="edgeStyle=orthogonalEdgeStyle;rounded=0;orthogonalLoop=1;jettySize=auto;html=1;exitX=1;exitY=0.5;exitDx=0;exitDy=0;entryX=0;entryY=0.5;entryDx=0;entryDy=0;entryPerimeter=0;" edge="1" parent="IJASuBAqT-sii7Gef456-8" source="IJASuBAqT-sii7Gef456-46" target="IJASuBAqT-sii7Gef456-48">
          <mxGeometry relative="1" as="geometry" />
        </mxCell>
        <mxCell id="IJASuBAqT-sii7Gef456-13" value="Check Credential" style="rounded=1;whiteSpace=wrap;html=1;absoluteArcSize=1;arcSize=14;strokeWidth=2;" vertex="1" parent="IJASuBAqT-sii7Gef456-8">
          <mxGeometry x="50" y="410" width="100" height="50" as="geometry" />
        </mxCell>
        <mxCell id="IJASuBAqT-sii7Gef456-15" value="Generate Token" style="rounded=1;whiteSpace=wrap;html=1;absoluteArcSize=1;arcSize=14;strokeWidth=2;" vertex="1" parent="IJASuBAqT-sii7Gef456-8">
          <mxGeometry x="50" y="680" width="100" height="50" as="geometry" />
        </mxCell>
        <mxCell id="IJASuBAqT-sii7Gef456-23" value="Logged In" style="rounded=1;whiteSpace=wrap;html=1;absoluteArcSize=1;arcSize=14;strokeWidth=2;" vertex="1" parent="IJASuBAqT-sii7Gef456-8">
          <mxGeometry x="50" y="782" width="100" height="50" as="geometry" />
        </mxCell>
        <mxCell id="IJASuBAqT-sii7Gef456-14" value="Credential valid?" style="strokeWidth=2;html=1;shape=mxgraph.flowchart.decision;whiteSpace=wrap;" vertex="1" parent="IJASuBAqT-sii7Gef456-8">
          <mxGeometry x="221.5" y="565" width="77" height="75" as="geometry" />
        </mxCell>
        <mxCell id="IJASuBAqT-sii7Gef456-24" style="edgeStyle=orthogonalEdgeStyle;rounded=0;orthogonalLoop=1;jettySize=auto;html=1;exitX=0.5;exitY=1;exitDx=0;exitDy=0;entryX=0.5;entryY=0;entryDx=0;entryDy=0;" edge="1" parent="IJASuBAqT-sii7Gef456-8" source="IJASuBAqT-sii7Gef456-15" target="IJASuBAqT-sii7Gef456-23">
          <mxGeometry relative="1" as="geometry" />
        </mxCell>
        <mxCell id="ypqF2_i0VFzySZQqtAtH-3" style="edgeStyle=orthogonalEdgeStyle;rounded=0;orthogonalLoop=1;jettySize=auto;html=1;exitX=0.5;exitY=1;exitDx=0;exitDy=0;entryX=0;entryY=0.5;entryDx=0;entryDy=0;entryPerimeter=0;" edge="1" parent="IJASuBAqT-sii7Gef456-8" source="IJASuBAqT-sii7Gef456-13" target="IJASuBAqT-sii7Gef456-14">
          <mxGeometry relative="1" as="geometry" />
        </mxCell>
        <mxCell id="IJASuBAqT-sii7Gef456-9" value="System" style="swimlane;whiteSpace=wrap;html=1;" vertex="1" parent="WIyWlLk6GJQsqaUBKTNV-1">
          <mxGeometry x="840" y="20" width="310" height="1000" as="geometry" />
        </mxCell>
        <mxCell id="IJASuBAqT-sii7Gef456-60" value="Show register success" style="strokeWidth=2;html=1;shape=mxgraph.flowchart.display;whiteSpace=wrap;" vertex="1" parent="IJASuBAqT-sii7Gef456-9">
          <mxGeometry x="37" y="110" width="100" height="60" as="geometry" />
        </mxCell>
        <mxCell id="IJASuBAqT-sii7Gef456-64" style="edgeStyle=orthogonalEdgeStyle;rounded=0;orthogonalLoop=1;jettySize=auto;html=1;exitX=1;exitY=0.5;exitDx=0;exitDy=0;exitPerimeter=0;entryX=0.5;entryY=0;entryDx=0;entryDy=0;entryPerimeter=0;" edge="1" parent="IJASuBAqT-sii7Gef456-9" source="IJASuBAqT-sii7Gef456-58" target="IJASuBAqT-sii7Gef456-62">
          <mxGeometry relative="1" as="geometry" />
        </mxCell>
        <mxCell id="IJASuBAqT-sii7Gef456-62" value="Retry&lt;br&gt;Register?" style="strokeWidth=2;html=1;shape=mxgraph.flowchart.decision;whiteSpace=wrap;" vertex="1" parent="IJASuBAqT-sii7Gef456-9">
          <mxGeometry x="192.25" y="275" width="77" height="75" as="geometry" />
        </mxCell>
        <mxCell id="IJASuBAqT-sii7Gef456-70" style="edgeStyle=orthogonalEdgeStyle;rounded=0;orthogonalLoop=1;jettySize=auto;html=1;exitX=1;exitY=0.5;exitDx=0;exitDy=0;exitPerimeter=0;entryX=0;entryY=0.5;entryDx=0;entryDy=0;" edge="1" parent="IJASuBAqT-sii7Gef456-9" source="IJASuBAqT-sii7Gef456-32" target="IJASuBAqT-sii7Gef456-69">
          <mxGeometry relative="1" as="geometry" />
        </mxCell>
        <mxCell id="IJASuBAqT-sii7Gef456-32" value="Show login success" style="strokeWidth=2;html=1;shape=mxgraph.flowchart.display;whiteSpace=wrap;" vertex="1" parent="IJASuBAqT-sii7Gef456-9">
          <mxGeometry x="37" y="842" width="100" height="60" as="geometry" />
        </mxCell>
        <mxCell id="IJASuBAqT-sii7Gef456-38" value="Retry&lt;br&gt;Login?" style="strokeWidth=2;html=1;shape=mxgraph.flowchart.decision;whiteSpace=wrap;" vertex="1" parent="IJASuBAqT-sii7Gef456-9">
          <mxGeometry x="190.75" y="577" width="77" height="75" as="geometry" />
        </mxCell>
        <mxCell id="IJASuBAqT-sii7Gef456-69" value="" style="verticalLabelPosition=bottom;verticalAlign=top;html=1;shape=offPageConnector;rounded=0;size=0.5;" vertex="1" parent="IJASuBAqT-sii7Gef456-9">
          <mxGeometry x="200" y="842" width="60" height="60" as="geometry" />
        </mxCell>
        <mxCell id="IJASuBAqT-sii7Gef456-37" value="to home page" style="text;html=1;align=center;verticalAlign=middle;whiteSpace=wrap;rounded=0;" vertex="1" parent="IJASuBAqT-sii7Gef456-9">
          <mxGeometry x="200" y="912" width="60" height="30" as="geometry" />
        </mxCell>
        <mxCell id="IJASuBAqT-sii7Gef456-52" value="Register Failed" style="rounded=1;whiteSpace=wrap;html=1;absoluteArcSize=1;arcSize=14;strokeWidth=2;" vertex="1" parent="IJASuBAqT-sii7Gef456-9">
          <mxGeometry x="-353.5" y="215" width="107" height="50" as="geometry" />
        </mxCell>
        <mxCell id="IJASuBAqT-sii7Gef456-59" style="edgeStyle=orthogonalEdgeStyle;rounded=0;orthogonalLoop=1;jettySize=auto;html=1;exitX=1;exitY=0.5;exitDx=0;exitDy=0;entryX=0;entryY=0.5;entryDx=0;entryDy=0;entryPerimeter=0;" edge="1" parent="IJASuBAqT-sii7Gef456-9" source="IJASuBAqT-sii7Gef456-52" target="IJASuBAqT-sii7Gef456-58">
          <mxGeometry relative="1" as="geometry" />
        </mxCell>
        <mxCell id="IJASuBAqT-sii7Gef456-58" value="Show error message" style="strokeWidth=2;html=1;shape=mxgraph.flowchart.display;whiteSpace=wrap;" vertex="1" parent="IJASuBAqT-sii7Gef456-9">
          <mxGeometry x="37" y="210" width="100" height="60" as="geometry" />
        </mxCell>
        <mxCell id="IJASuBAqT-sii7Gef456-81" value="End" style="strokeWidth=2;html=1;shape=mxgraph.flowchart.terminator;whiteSpace=wrap;" vertex="1" parent="IJASuBAqT-sii7Gef456-9">
          <mxGeometry x="190" y="727" width="80" height="50" as="geometry" />
        </mxCell>
        <mxCell id="IJASuBAqT-sii7Gef456-82" style="edgeStyle=orthogonalEdgeStyle;rounded=0;orthogonalLoop=1;jettySize=auto;html=1;exitX=0.5;exitY=1;exitDx=0;exitDy=0;exitPerimeter=0;entryX=0.5;entryY=0;entryDx=0;entryDy=0;entryPerimeter=0;" edge="1" parent="IJASuBAqT-sii7Gef456-9" source="IJASuBAqT-sii7Gef456-38" target="IJASuBAqT-sii7Gef456-81">
          <mxGeometry relative="1" as="geometry" />
        </mxCell>
        <mxCell id="ypqF2_i0VFzySZQqtAtH-5" style="edgeStyle=orthogonalEdgeStyle;rounded=0;orthogonalLoop=1;jettySize=auto;html=1;exitX=0.5;exitY=1;exitDx=0;exitDy=0;exitPerimeter=0;entryX=0;entryY=0.5;entryDx=0;entryDy=0;entryPerimeter=0;" edge="1" parent="IJASuBAqT-sii7Gef456-9" source="IJASuBAqT-sii7Gef456-30" target="IJASuBAqT-sii7Gef456-38">
          <mxGeometry relative="1" as="geometry" />
        </mxCell>
        <mxCell id="IJASuBAqT-sii7Gef456-25" value="Login Failed" style="rounded=1;whiteSpace=wrap;html=1;absoluteArcSize=1;arcSize=14;strokeWidth=2;" vertex="1" parent="IJASuBAqT-sii7Gef456-9">
          <mxGeometry x="-350" y="465" width="100" height="50" as="geometry" />
        </mxCell>
        <mxCell id="IJASuBAqT-sii7Gef456-31" style="edgeStyle=orthogonalEdgeStyle;rounded=0;orthogonalLoop=1;jettySize=auto;html=1;exitX=1;exitY=0.5;exitDx=0;exitDy=0;entryX=0;entryY=0.5;entryDx=0;entryDy=0;entryPerimeter=0;" edge="1" parent="IJASuBAqT-sii7Gef456-9" source="IJASuBAqT-sii7Gef456-25" target="IJASuBAqT-sii7Gef456-30">
          <mxGeometry relative="1" as="geometry" />
        </mxCell>
        <mxCell id="IJASuBAqT-sii7Gef456-30" value="Show error message" style="strokeWidth=2;html=1;shape=mxgraph.flowchart.display;whiteSpace=wrap;" vertex="1" parent="IJASuBAqT-sii7Gef456-9">
          <mxGeometry x="37" y="460" width="100" height="60" as="geometry" />
        </mxCell>
        <mxCell id="IJASuBAqT-sii7Gef456-47" style="edgeStyle=orthogonalEdgeStyle;rounded=0;orthogonalLoop=1;jettySize=auto;html=1;exitX=1;exitY=0.5;exitDx=0;exitDy=0;entryX=0;entryY=0.5;entryDx=0;entryDy=0;" edge="1" parent="WIyWlLk6GJQsqaUBKTNV-1" source="IJASuBAqT-sii7Gef456-6" target="IJASuBAqT-sii7Gef456-46">
          <mxGeometry relative="1" as="geometry" />
        </mxCell>
        <mxCell id="IJASuBAqT-sii7Gef456-51" style="edgeStyle=orthogonalEdgeStyle;rounded=0;orthogonalLoop=1;jettySize=auto;html=1;exitX=1;exitY=0.5;exitDx=0;exitDy=0;exitPerimeter=0;entryX=0;entryY=0.5;entryDx=0;entryDy=0;" edge="1" parent="WIyWlLk6GJQsqaUBKTNV-1" source="IJASuBAqT-sii7Gef456-48" target="IJASuBAqT-sii7Gef456-50">
          <mxGeometry relative="1" as="geometry" />
        </mxCell>
        <mxCell id="IJASuBAqT-sii7Gef456-53" value="Yes" style="edgeLabel;html=1;align=center;verticalAlign=middle;resizable=0;points=[];" vertex="1" connectable="0" parent="IJASuBAqT-sii7Gef456-51">
          <mxGeometry x="-0.388" relative="1" as="geometry">
            <mxPoint as="offset" />
          </mxGeometry>
        </mxCell>
        <mxCell id="IJASuBAqT-sii7Gef456-61" style="edgeStyle=orthogonalEdgeStyle;rounded=0;orthogonalLoop=1;jettySize=auto;html=1;exitX=1;exitY=0.5;exitDx=0;exitDy=0;entryX=0;entryY=0.5;entryDx=0;entryDy=0;entryPerimeter=0;" edge="1" parent="WIyWlLk6GJQsqaUBKTNV-1" source="IJASuBAqT-sii7Gef456-50" target="IJASuBAqT-sii7Gef456-60">
          <mxGeometry relative="1" as="geometry" />
        </mxCell>
        <mxCell id="IJASuBAqT-sii7Gef456-68" style="edgeStyle=orthogonalEdgeStyle;rounded=0;orthogonalLoop=1;jettySize=auto;html=1;exitX=0;exitY=0.5;exitDx=0;exitDy=0;exitPerimeter=0;entryX=0.5;entryY=1;entryDx=0;entryDy=0;" edge="1" parent="WIyWlLk6GJQsqaUBKTNV-1" source="IJASuBAqT-sii7Gef456-62" target="IJASuBAqT-sii7Gef456-6">
          <mxGeometry relative="1" as="geometry" />
        </mxCell>
        <mxCell id="IJASuBAqT-sii7Gef456-74" value="Yes" style="edgeLabel;html=1;align=center;verticalAlign=middle;resizable=0;points=[];" vertex="1" connectable="0" parent="IJASuBAqT-sii7Gef456-68">
          <mxGeometry x="-0.8745" relative="1" as="geometry">
            <mxPoint as="offset" />
          </mxGeometry>
        </mxCell>
        <mxCell id="IJASuBAqT-sii7Gef456-20" style="edgeStyle=orthogonalEdgeStyle;rounded=0;orthogonalLoop=1;jettySize=auto;html=1;exitX=1;exitY=0.5;exitDx=0;exitDy=0;entryX=0;entryY=0.5;entryDx=0;entryDy=0;" edge="1" parent="WIyWlLk6GJQsqaUBKTNV-1" source="IJASuBAqT-sii7Gef456-16" target="IJASuBAqT-sii7Gef456-13">
          <mxGeometry relative="1" as="geometry" />
        </mxCell>
        <mxCell id="IJASuBAqT-sii7Gef456-33" style="edgeStyle=orthogonalEdgeStyle;rounded=0;orthogonalLoop=1;jettySize=auto;html=1;exitX=0.5;exitY=1;exitDx=0;exitDy=0;entryX=0;entryY=0.5;entryDx=0;entryDy=0;entryPerimeter=0;" edge="1" parent="WIyWlLk6GJQsqaUBKTNV-1" source="IJASuBAqT-sii7Gef456-23" target="IJASuBAqT-sii7Gef456-32">
          <mxGeometry relative="1" as="geometry" />
        </mxCell>
        <mxCell id="IJASuBAqT-sii7Gef456-72" style="edgeStyle=orthogonalEdgeStyle;rounded=0;orthogonalLoop=1;jettySize=auto;html=1;exitX=0.5;exitY=0;exitDx=0;exitDy=0;exitPerimeter=0;entryX=0.5;entryY=0;entryDx=0;entryDy=0;" edge="1" parent="WIyWlLk6GJQsqaUBKTNV-1" source="IJASuBAqT-sii7Gef456-38" target="IJASuBAqT-sii7Gef456-16">
          <mxGeometry relative="1" as="geometry">
            <Array as="points">
              <mxPoint x="1069" y="400" />
              <mxPoint x="200" y="400" />
            </Array>
          </mxGeometry>
        </mxCell>
        <mxCell id="IJASuBAqT-sii7Gef456-73" value="Yes" style="edgeLabel;html=1;align=center;verticalAlign=middle;resizable=0;points=[];" vertex="1" connectable="0" parent="IJASuBAqT-sii7Gef456-72">
          <mxGeometry x="-0.935" y="-1" relative="1" as="geometry">
            <mxPoint as="offset" />
          </mxGeometry>
        </mxCell>
        <mxCell id="IJASuBAqT-sii7Gef456-57" style="edgeStyle=orthogonalEdgeStyle;rounded=0;orthogonalLoop=1;jettySize=auto;html=1;exitX=0.5;exitY=1;exitDx=0;exitDy=0;exitPerimeter=0;entryX=0.5;entryY=0;entryDx=0;entryDy=0;" edge="1" parent="WIyWlLk6GJQsqaUBKTNV-1" source="IJASuBAqT-sii7Gef456-48" target="IJASuBAqT-sii7Gef456-52">
          <mxGeometry relative="1" as="geometry" />
        </mxCell>
        <mxCell id="ypqF2_i0VFzySZQqtAtH-6" style="edgeStyle=orthogonalEdgeStyle;rounded=0;orthogonalLoop=1;jettySize=auto;html=1;exitX=0.5;exitY=0;exitDx=0;exitDy=0;exitPerimeter=0;entryX=0.5;entryY=1;entryDx=0;entryDy=0;" edge="1" parent="WIyWlLk6GJQsqaUBKTNV-1" source="IJASuBAqT-sii7Gef456-14" target="IJASuBAqT-sii7Gef456-25">
          <mxGeometry relative="1" as="geometry" />
        </mxCell>
        <mxCell id="ypqF2_i0VFzySZQqtAtH-7" value="No" style="edgeLabel;html=1;align=center;verticalAlign=middle;resizable=0;points=[];" vertex="1" connectable="0" parent="ypqF2_i0VFzySZQqtAtH-6">
          <mxGeometry x="-0.0595" y="2" relative="1" as="geometry">
            <mxPoint as="offset" />
          </mxGeometry>
        </mxCell>
        <mxCell id="ypqF2_i0VFzySZQqtAtH-8" style="edgeStyle=orthogonalEdgeStyle;rounded=0;orthogonalLoop=1;jettySize=auto;html=1;exitX=1;exitY=0.5;exitDx=0;exitDy=0;exitPerimeter=0;entryX=0;entryY=0.5;entryDx=0;entryDy=0;" edge="1" parent="WIyWlLk6GJQsqaUBKTNV-1" source="IJASuBAqT-sii7Gef456-14" target="ypqF2_i0VFzySZQqtAtH-0">
          <mxGeometry relative="1" as="geometry" />
        </mxCell>
        <mxCell id="ypqF2_i0VFzySZQqtAtH-9" value="Yes" style="edgeLabel;html=1;align=center;verticalAlign=middle;resizable=0;points=[];" vertex="1" connectable="0" parent="ypqF2_i0VFzySZQqtAtH-8">
          <mxGeometry x="-0.2922" relative="1" as="geometry">
            <mxPoint as="offset" />
          </mxGeometry>
        </mxCell>
        <mxCell id="ypqF2_i0VFzySZQqtAtH-10" style="edgeStyle=orthogonalEdgeStyle;rounded=0;orthogonalLoop=1;jettySize=auto;html=1;exitX=0.5;exitY=1;exitDx=0;exitDy=0;entryX=1;entryY=0.5;entryDx=0;entryDy=0;" edge="1" parent="WIyWlLk6GJQsqaUBKTNV-1" source="ypqF2_i0VFzySZQqtAtH-0" target="IJASuBAqT-sii7Gef456-15">
          <mxGeometry relative="1" as="geometry" />
        </mxCell>
      </root>
    </mxGraphModel>
  </diagram>
  <diagram id="zrLRdbO02RrdYoaZa47U" name="Page-2">
    <mxGraphModel grid="1" page="1" gridSize="10" guides="1" tooltips="1" connect="1" arrows="1" fold="1" pageScale="1" pageWidth="1654" pageHeight="1169" math="0" shadow="0">
      <root>
        <mxCell id="0" />
        <mxCell id="1" parent="0" />
      </root>
    </mxGraphModel>
  </diagram>
</mxfile>
